# xmcd
#
# Track frame offsets: 
#        150
#        12007
#        22133
#        32371
#        46865
#        58020
#        69393
#        81809
#        95692
#        105255
#        119879
#        131871
#        141613
#        152482
#        169256
#        183977
#        196198
#        205804
#        217320
#        228521
#        239510
#        254360
#        265738
#        282270
#        294380
#
# Disc length: 4096 seconds
#
# Revision: 0
# Processed by: cddbd v1.5.2PL0 Copyright (c) Steve Scherf et al.
# Submitted via: ExactAudioCopyFreeDBPlugin 1.0
#
DISCID=750ffe19
DTITLE=Patti Page - The Definitive Collection CD 1
DYEAR=2015
DGENRE=Country
TTITLE0=A city girl stole my country boy
TTITLE1=Faded love
TTITLE2=I walk the line
TTITLE3=Hello, we're lonely
TTITLE4=A Poor Man's Roses
TTITLE5=Invitation to the blues
TTITLE6=We sure can love each other
TTITLE7=A woman left lonely
TTITLE8=Release me (And let me love again)
TTITLE9=Don't worry bout me
TTITLE10=We're not getting old
TTITLE11=Slowly
TTITLE12=Let Me Go Lover
TTITLE13=Farther along
TTITLE14=Four walls
TTITLE15=I Don't Care If The Sun Don't Shine
TTITLE16=Guess things happen that way
TTITLE17=Walking the floor over you
TTITLE18=Help me make it through the night
TTITLE19=Your old love letters
TTITLE20=I Went To Your Wedding
TTITLE21=I forgot more than you'll ever know
TTITLE22=I won't mention it again
TTITLE23=Dark moon
TTITLE24=Allegheny Moon
EXTD=
EXTT0=
EXTT1=
EXTT2=
EXTT3=
EXTT4=
EXTT5=
EXTT6=
EXTT7=
EXTT8=
EXTT9=
EXTT10=
EXTT11=
EXTT12=
EXTT13=
EXTT14=
EXTT15=
EXTT16=
EXTT17=
EXTT18=
EXTT19=
EXTT20=
EXTT21=
EXTT22=
EXTT23=
EXTT24=
PLAYORDER=
